<svg id="visual" viewBox="0 0 900 600" width="900" height="600" xmlns="http://www.w3.org/2000/svg" xmlns:xlink="http://www.w3.org/1999/xlink" version="1.1">
<rect x="0" y="0" width="900" height="600" fill="#FF0066"></rect>
<g transform="translate(447.9848881408318 284.89258568153656)">
<path d="M127.6 -188C172.6 -169.6 221.4 -146.5 249.2 -107.4C277.1 -68.3 284.1 -13.2 272.7 36.5C261.3 86.2 231.5 130.5 193.6 159.5C155.7 188.5 109.5 202.2 61.8 221C14.1 239.9 -35.2 263.9 -75.3 253.4C-115.3 243 -146.1 198.1 -181.3 157.2C-216.5 116.3 -256.3 79.4 -269.1 34.6C-281.9 -10.3 -267.8 -63.1 -241.9 -106.5C-215.9 -149.9 -177.9 -183.9 -135.6 -203.6C-93.4 -223.3 -46.7 -228.6 -2.7 -224.4C41.3 -220.2 82.5 -206.4 127.6 -188" fill="#BB004B">
</path>
</g></svg>